<svg width="100%" height="1178" viewBox="0 0 1316 1178" fill="none" xmlns="http://www.w3.org/2000/svg">
               <g clip-path="url(#clip0_2_14)">
                  <!-- 동남권 -->
                  <path
                     d="M1131.26 615.39C1136.99 608.64 1144.64 605.28 1153.26 599.89C1162.2 594.3 1167.44 586.98 1179.77 586.89C1190.44 586.56 1202.44 587.56 1212.28 586.39C1230.8 582.04 1241.69 569.97 1256.29 561.38C1265.05 556.23 1276.29 552.48 1284.8 547.38C1284.07 568.03 1285.49 567.56 1302.3 575.89C1303.81 577.05 1307.46 576.07 1309.8 576.39C1310.89 583.47 1311.28 591.24 1314.3 596.4C1312.37 606.82 1303.37 616.15 1304.8 628.41C1312.61 642.31 1310.75 646.42 1311.3 661.42C1319.26 674.24 1314.61 672.92 1308.3 685.43C1288.08 691.01 1265.35 699.62 1243.29 706.43C1237.06 708.39 1224.58 710.53 1221.78 713.93C1218.28 720.68 1220.4 737.87 1219.28 745.94C1213.35 763.62 1200.61 776.94 1191.77 793.45C1161.2 790.07 1184.91 780.48 1146.26 779.95C1135.47 753.81 1141.41 759.48 1120.26 740.94C1125.42 726.37 1136.75 705.71 1127.26 689.93C1116.1 689.19 1112.9 689.08 1106.25 678.92C1110.22 652.75 1112.25 629.46 1131.26 615.41V615.39ZM771.67 759.43C778.82 753.66 786.08 745.31 793.67 740.42C807.57 737.77 820.03 735.9 835.18 736.92C882.23 736.51 905.71 775.3 950.71 780.93C951.87 792.17 950.96 805.14 951.71 816.44C951.58 828.3 950.78 842.87 957.71 851.45C961.1 861.51 964.83 865.71 973.71 871.45C981.43 878.91 989.21 882.78 999.21 886.95C1014.64 898.39 1035.05 896.11 1052.22 900.95C1059.42 906.73 1062.52 914.37 1064.73 922.96C1074.32 930.03 1085.41 935.61 1094.73 942.96C1097.18 955.15 1097.81 967.45 1100.73 978.97C1111.51 996.72 1125.27 1013.01 1132.24 1033.49C1094.56 1032.89 1116.89 1046.95 1091.23 1059.49C1085.49 1061.25 1078.68 1059.72 1073.23 1060.99C1062.15 1067.45 1060.49 1066.94 1047.22 1065.99C1042.27 1061.69 1040.2 1055.67 1034.72 1050.99C1024.37 1045.22 1014.11 1038.51 1009.71 1026.48C1015.38 983.43 978.61 985.51 949.7 998.48C931.81 1033.22 930.76 1013.27 895.19 1029.48C876.37 1007.61 886.48 962.71 858.68 943.96C851.9 940.73 843.7 938.94 838.67 933.96C833.43 928.61 828.75 922.95 823.17 917.96C812.23 905.98 817.48 873.63 813.17 856.45C800.17 838.68 796.2 846.33 794.67 818.94C794.16 795.97 779.9 779.35 771.66 759.43H771.67ZM768.67 762.43C777.53 780.32 791.48 798.03 791.67 819.94C792.92 848.07 796.7 839.93 810.18 857.95C813.7 876.92 808.79 910.29 822.68 922.97C827.31 928 832.15 932.85 837.18 937.47C889.77 956.28 867.53 998.99 893.69 1033C906.27 1029.23 921.27 1023.58 938.2 1022.49C943.93 1016.7 946.9 1007.07 952.7 1000.99C964.16 993.59 992.86 988.22 1004.21 1002.49C1006.58 1004.14 1004.07 1010.53 1005.71 1012.49C1006.11 1016.88 1004.93 1023.16 1006.21 1026.99C1011.88 1045.48 1034.77 1050.87 1043.72 1067.5C1028.54 1073.84 1018.95 1068.23 1022.22 1089.51C1021.43 1095.03 1016.46 1100.06 1016.71 1105.01C984.53 1106.14 1003.75 1116.66 986.71 1129.52C935.1 1144.55 950.38 1124.12 937.7 1177.53C902.8 1179.66 889.92 1172.76 862.18 1152.52C858.28 1150.02 849.78 1147.67 851.18 1142.02C852.58 1123 843.33 1104.69 839.68 1087.01C838.93 1071.19 841.17 1054.6 839.68 1039C840.37 1030.07 831.47 1031.36 824.67 1029.99C818.63 1028.78 814.28 1026.26 809.17 1026.99C799.42 1031.22 785.57 1041.41 776.16 1047C769.03 1053.27 764.76 1063.11 759.16 1067.5C735.91 1070.44 738.79 1066.31 739.16 1045.5C735.52 1035.48 727.06 1029.91 716.15 1033.5C711.97 1035.15 712.01 1040.16 708.15 1043C695.87 1027.6 688.74 1007.06 679.14 988.98C680.16 964.64 671.41 946.88 677.14 920.96C678.47 906.11 681.65 894.5 685.64 881.95C685.44 877.11 681.42 872.38 679.64 868.45C675.13 850.72 666.71 854.04 650.63 853.45C649.07 848.01 647.71 842.37 646.63 836.45C666.52 835.94 682.57 837.72 696.64 831.95C722.65 812.77 747.35 785.28 768.66 762.43H768.67ZM1104.24 682.41C1111.28 690.3 1112.82 693.95 1124.75 692.41C1133.54 707.09 1120.48 727.77 1116.75 741.92C1117.6 747.7 1130.42 751.86 1132.75 756.92C1137.1 765.07 1139.64 775.04 1144.75 782.43C1150.75 784.44 1159.08 784.11 1166.26 784.93C1172.05 790.8 1178.7 795.83 1189.76 796.43C1185.2 808.26 1171.78 819.74 1169.76 832.94C1170.35 837.2 1176.97 837.99 1178.26 842.94C1179.74 848.61 1177.21 851.21 1178.26 858.44C1187.35 871.6 1221.61 879.75 1239.28 881.45C1240.44 884.96 1239.45 890.62 1239.78 894.95C1215.21 899.92 1218.97 924.34 1214.77 942.96C1203.72 963.68 1202.8 955.37 1188.26 962.46C1183.4 968.85 1179.9 982.76 1181.76 991.97C1176.97 1005.83 1157.51 997.64 1148.76 1001.47C1142.21 1007.44 1139.34 1023.2 1134.25 1029.97C1126.93 1010.34 1114.53 993.69 1103.74 976.96C1096 934.25 1105.09 945.13 1067.24 920.45C1057.98 877.17 1030.53 912.54 975.72 868.93C961.04 859.57 954.89 842.14 955.72 825.42C955.45 810.89 955.55 796.11 954.72 781.91C981.2 785.24 1008.97 784.19 1034.74 776.41C1052.46 765.9 1061.59 744.56 1075.25 729.9C1088.63 716.25 1096.48 698.41 1104.25 682.39L1104.24 682.41Z"
                     fill="#56CCF2"
                     style="fill: #56ccf2; fill: color(display-p3 0.3373 0.8 0.949); fill-opacity: 1"
                     data-label="southeast"
                     data-index="4" />
                  <!-- 서남권 -->
                  <path
                     d="M511.61 788.43C601.49 796.12 550.1 770.42 615.13 830.95C636.36 839.51 643.07 825.77 648.14 855.95C675.75 857.11 671.65 857.68 682.65 882.46C674.06 905.34 667.73 944.93 675.15 968.48C653.05 983.13 631.46 975.05 614.64 954.98C609.23 940.46 607.47 922.47 602.14 907.47C567.82 888.18 527.39 893.64 489.61 894.47C476.19 922.18 481.27 913.28 451.6 918.47C442.18 921.44 434.93 932.26 425.1 931.98C424.55 899.92 445.1 895.19 472.61 890.97C484.53 862.81 482.62 869.4 484.11 838.96C491.07 821.78 501.83 801.76 511.62 788.45L511.61 788.43ZM97.02 404.84C127.84 421.69 155.84 441.52 174.53 471.36C181.09 478.43 189.64 483.53 196.04 490.36C204.09 498.96 208.94 510.66 217.54 519.37C230.9 529.92 250.73 537.56 265.55 546.88C276.89 559.44 288.87 574 294.55 589.89C309.17 613.44 347.72 620.95 345.06 652.9C331.62 654.52 322.11 650.41 308.55 648.4C296.42 661.23 297.52 677.71 297.05 694.41C291.54 702.57 286.72 711.42 282.05 720.42C273.39 722.13 265.69 729.46 257.04 729.92C244.69 728.09 225.15 725.26 218.53 715.42C211.47 700.01 204.64 681.49 198.03 666.41C188.15 653.02 179.92 660.65 167.52 660.41C164.22 665.61 161.46 671.35 158.52 676.91C91.34 674.8 121.07 661.66 80 701.92C73.76 692.64 71.67 678.41 65.5 669.41C48.41 661.43 26.71 654.83 9.98999 647.41C9.48999 633.74 4.34999 624.71 -0.0100098 614.9C4.04999 609.6 11.85 610.48 15.49 604.9C18.98 590.49 22.53 570.81 26.99 557.39C94.78 537.06 40.68 523.22 80 486.37C92.25 478.51 94.6 472.2 93.5 455.37C94.3 432.96 76.89 424.29 97 404.86L97.02 404.84ZM371.58 936.97C381.64 936.02 385.69 929.07 393.59 925.97C402.3 929.93 411.38 944.66 422.6 937.47C426.06 947.74 432.82 952.97 442.61 956.47C442.83 961.56 440.69 967.92 442.11 972.98C447.58 1005.51 441.54 1044.53 461.61 1071C466.39 1072.23 470.44 1074.18 475.12 1075.5C475.48 1083.63 484.56 1092.8 475.62 1098.01C459.25 1101.47 455.09 1117.16 450.61 1132.52C420.1 1146.38 430.18 1142.5 396.1 1141.02C389.15 1114.15 379.97 1081.89 372.09 1053C368.5 1038.28 369.11 1018.96 349.58 1022.49C346.68 988.38 332.5 965.56 323.07 937.97C338.93 938.46 356.08 938.28 371.58 936.97ZM391.09 914.46C390.75 917.82 391.69 920.06 391.59 922.96C380.31 929.44 379.99 933.19 365.08 933.96C350.68 933.65 335.67 935.59 321.57 933.96C319.13 919.33 326.43 908.97 309.57 902.45C299.09 891.97 288.73 899.53 278.56 905.45C262.5 918.7 272.8 930.68 264.56 936.46C251.17 949.32 238.64 962.86 225.55 975.97C216.18 992.16 193.8 982.01 180.54 978.47C162.57 979.64 155.22 987.67 136.03 982.97C143.09 966.58 153.69 947.3 160.04 930.46C158.82 919.49 144.77 902.04 143.03 890.45C146.88 876.9 179.25 827.93 164.53 817.43C172.1 818.2 179.06 819.57 186.04 820.93C189.01 826.3 189.71 840.58 198.04 836.93C219.59 836.96 221.43 839.9 237.55 822.92C244.63 819.08 250.2 807.31 259.05 809.42C264.2 810.79 271.42 809.48 277.05 809.92C280.99 823.26 283.13 836.36 299.56 838.42C339.95 836.53 328.03 842.73 346.07 807.91C354.14 813.28 365.73 817.51 373.08 823.91C377.92 838.21 380.66 853.78 382.58 869.92C386.04 874.62 391.71 877.13 390.08 886.92C390.41 896.26 390.98 905.24 391.08 914.43L391.09 914.46ZM656.15 1085C640.75 1100.09 626.81 1116.13 605.64 1125.01C592.78 1134.05 586.24 1138.58 570.63 1137.01C549.12 1136.51 525.16 1145.01 507.62 1129.01C498.73 1106.75 508.06 1102.46 479.61 1099C487.83 1093.41 478.71 1081.79 477.61 1073.49C473.68 1071.26 469.03 1069.74 464.11 1068.49C452.71 1051.73 453.19 1054.4 451.61 1032.48C448.28 1006.66 445.02 977.73 445.11 953.97C436.01 950.37 428.6 946.12 425.61 935.96C436.73 934.58 444.52 923.94 453.12 921.46C477.23 916.65 482.49 924.8 490.63 897.95C516.51 898.06 541.89 897.15 567.65 897.45C612.18 910.75 599.32 917.53 611.66 957.47C624.04 965.35 632.89 981.73 649.17 979.47C660.13 980.9 668.21 975.27 675.18 972.47C673.22 998.86 693.76 1025.27 705.19 1044.99C683.62 1048.14 672.32 1071.89 656.17 1085H656.15ZM161.54 678.41C164.35 673.38 166.41 667.61 170.04 663.41C182 663.45 187.49 657.55 195.55 668.91C201.54 683.76 210.64 704.16 216.06 718.42C224.64 727.5 244.52 731.8 258.07 732.93C268.19 732.03 276.8 724.67 285.08 722.43C287.26 712.99 297.76 703.95 300.08 695.42C302.43 676.57 297.31 640.8 326.59 656.41C332.11 657.89 341.07 655.93 346.59 657.41C353.18 669.54 356.62 683.45 363.09 695.42C372.57 705.21 369.35 710.41 371.09 722.43C362.29 730.81 352.18 737.86 343.58 746.44C342.74 775.68 347.34 807.66 330.07 832.96C298.18 835.96 286.77 840.56 279.56 807.46C275.22 806.63 270.36 806.32 265.06 806.46C245.44 801.04 236.18 825.4 220.05 832.96C213.79 833.39 205.86 832.12 200.05 833.46C180.46 832.23 209.48 816.46 159.04 812.96C175.11 785.12 172.84 776.01 171.54 742.94C172.69 716.82 175.3 698.51 161.54 678.42V678.41ZM347.58 746.92C354.11 739.8 368.75 732.16 374.09 723.42C376.35 692.8 346.62 670.56 347.08 637.4C381.01 671.5 424.24 691.81 470.11 707.92C476.39 743.48 475.05 769.3 508.12 786.94C468.1 844.74 490.11 841.35 470.11 888.46C399.36 896.58 438.04 925.53 415.1 936.47C408.16 932.24 401.6 927.62 395.09 922.96C394.71 920.36 395.85 915.91 394.59 913.96C394.33 904.88 394.73 895.01 393.59 886.45C396.14 875.5 387.81 874 385.59 867.45C377.51 829.08 385.8 822.86 347.08 804.44C347.08 785.06 346.91 766.29 347.58 746.92ZM559.63 774.43C538.77 750.78 517.3 727.74 485.61 714.92C489.5 766.99 509.11 784.22 559.63 774.43Z"
                     fill="#9B51E0"
                     style="fill: #9b51e0; fill: color(display-p3 0.6078 0.3176 0.8784); fill-opacity: 1"
                     data-label="southwest"
                     data-index="3" />
                  <!-- 도심권 -->
                  <path
                     d="M682.15 556.38C668.51 565.07 652.64 571.55 634.64 575.89C618.08 560.08 591.73 544.87 605.13 518.38C617.45 477.48 623.46 479.88 609.63 437.36C604.2 434.63 597.78 432.87 593.13 429.36V427.36C594.52 418.74 593.18 408.36 593.63 399.35C595.01 390.73 593.68 380.35 594.13 371.34C595.73 356.38 593.39 334.52 599.13 322.33C602.35 315.24 610.97 310.59 615.63 303.83C618.98 298.97 620.13 294.19 623.63 289.33C635.8 288.17 645.95 284.97 658.14 283.83C662.39 288.58 668.12 291.85 673.64 295.33C680.58 312.09 682.16 329.65 687.14 347.34C694.1 370.51 713.74 395.34 696.14 420.86C690.87 422.76 685.62 424.68 680.64 426.86C679.84 433.59 677.79 441.64 678.64 448.37C688.49 457.22 706.09 455.22 721.15 459.37C728.82 461.49 734.53 465.75 741.15 467.37C752.31 489.55 760.56 514.65 776.16 532.39C789.34 533.38 802.88 534.01 815.67 535.39C814.98 543.7 815.18 553.21 815.17 561.9C809.21 562.34 801.66 561.03 796.16 562.4C791.4 562.83 784.91 561.56 780.66 562.9C775.91 563.32 769.4 562.07 765.16 563.4C744.51 566.27 725.49 570.42 704.65 568.9C698 563.69 692.23 552.6 682.14 556.39L682.15 556.38ZM814.18 596.89C809.48 609.09 801.51 616.77 792.67 625.4C792.27 625.5 792.17 625.9 791.67 625.9C789.37 628.1 786.63 629.87 785.17 632.9C781.13 644.36 775.53 654.27 770.67 664.91C762.75 661.82 757.6 655.97 749.16 653.41C745.08 652.07 738.76 653.33 734.16 652.91C733.14 651.76 730.01 652.73 728.16 652.41C705.58 656.02 707.63 632.13 688.65 635.91C686.31 636.23 682.66 635.26 681.15 636.41C661.37 636.08 641.59 638.73 622.14 640.41C619.12 627.09 614.85 615.02 610.14 603.4C619.32 596.08 629.64 589.89 635.14 578.89C647.98 575.61 659.78 572.58 670.65 566.89C677.28 563.42 679.77 558.64 690.15 559.89C694.11 564.27 698.28 568.43 702.65 572.39C728.86 575.53 748.9 567.45 772.17 566.39C776.92 565.97 783.43 567.22 787.67 565.89C792.42 565.47 798.93 566.72 803.17 565.39H814.67V582.89C813.34 586.62 814.59 592.63 814.17 596.89H814.18ZM699.16 641.4C707.82 647.21 710.89 658.55 727.67 655.9C731.75 657.24 738.08 655.98 742.67 656.4C752.87 656.7 762.05 663.99 770.18 669.4C773.15 685.11 778.84 700.74 781.18 715.41C750.39 735.43 726.14 770.92 697.16 794.93C689.74 801.98 686.3 806.86 675.16 807.93C662.27 809.18 638.74 809.6 629.15 805.93C617.86 799.37 609.41 784.8 600.64 775.42C587.7 761 572.49 748.68 560.13 733.41C585.99 708.43 613.73 685.31 622.64 643.39C641.29 641.73 660.57 640.63 679.15 639.89C684.76 640.68 695.23 638.07 699.15 641.39L699.16 641.4Z"
                     fill="#EB5757"
                     style="fill: #eb5757; fill: color(display-p3 0.9216 0.3412 0.3412); fill-opacity: 1"
                     data-label="central"
                     data-index="0" />
                  <!-- 동북권 -->
                  <path
                     d="M537.62 204.8C549.24 207.83 563.74 180.63 568.63 172.79C583.32 184.92 599.41 199.07 614.64 212.3C618.53 215.68 628.39 221.68 629.64 225.8C630.29 236.09 628.6 246.96 630.14 256.81C632.09 271.27 624.03 275.71 620.64 284.82C621.27 285.02 621.66 285.46 621.64 286.32C616.5 295.92 611.5 303.79 604.64 311.33C601.6 314.66 597.05 317.72 595.64 321.33C592.85 328.45 593.76 336.44 591.14 345.34C589.76 353.95 591.09 364.35 590.64 373.35C589.25 382.83 590.6 394 590.14 403.86C580.23 401.24 575.7 404.21 569.63 407.86C555.84 413.38 552.66 428.61 549.12 441.37C539.55 445.3 530.11 449.36 519.61 452.37C516.63 460.72 513.16 468.6 508.11 474.88C504.1 476.51 496.44 474.27 492.61 475.88C482.9 476.27 471.34 475.1 462.1 476.38C458.07 475.33 449.57 486.77 446.1 489.88V490.38C437.21 496.03 439.16 507.38 437.1 516.89C429.77 512.35 423.37 506.39 416.09 500.89C409.04 495.56 400.21 491.18 394.58 484.89C391.41 481.35 390.4 476.44 386.58 473.39C376.71 473.43 374.85 465.45 370.58 459.89C381.33 464.98 396.05 466.1 412.09 465.89C425.93 450.19 443.06 438.18 440.1 412.38C440.4 386.27 439.48 360.3 439.6 334.36C441.92 330.73 447.72 328.94 449.1 324.86C452.09 290.13 454.59 250.05 458.1 216.84C474.09 216.67 489.31 218.84 504.11 217.84C511.36 214.97 510.48 200.25 523.11 204.34C527.03 205.7 533.15 204.4 537.61 204.84L537.62 204.8ZM365.08 457.86C371.71 463.9 371.66 476.62 385.08 475.86C395.46 496.32 419.8 505.35 436.09 520.37C448.76 531.32 458.35 546.28 469.6 556.38C478.38 563.08 487.35 570.26 495.11 578.38C495.61 578.38 495.71 578.79 496.11 578.88C501.07 584.25 506.25 589.42 511.61 594.38C512.11 594.38 512.21 594.78 512.61 594.88C517.35 599.65 521.58 605.02 527.11 608.88C540.26 610.56 560.26 612.31 575.12 613.88C600.22 618.88 590.36 612.19 607.13 604.88C611.06 616.19 618.46 630.3 619.13 642.39C613.93 679.5 583.16 707.29 557.62 730.41C531.23 702.13 495.49 686.86 459.6 674.4C439.93 665.79 417.03 655.14 398.09 644.89C371.72 622.25 343.75 598.1 318.07 574.87C314.17 569.65 313.15 562.32 310.07 556.86C307.26 551.89 302.23 546.71 298.07 541.86C291.23 533.88 285.8 525.67 276.56 521.35V520.85C284.84 518.12 293.04 505.69 301.57 503.85C310.71 501.87 320.23 504.66 331.08 502.85C337.31 496.31 348.65 487.01 353.08 478.84C352.11 467.79 359.24 465.48 365.08 457.83V457.86ZM614.14 561.88C619.53 567.82 626.48 572.21 631.64 578.38C622.6 594.52 603.58 600.67 590.13 612.39C576.56 610.9 559.96 608.99 544.62 607.39C535.65 606.45 527.81 607.23 524.12 601.39C518.77 595.99 513.7 589.82 507.62 585.39C491.58 567.77 470.99 554.99 455.61 535.88C451.54 531.41 441.09 524.04 440.11 518.88C439.61 516.26 441.8 502.21 443.11 498.88C445.34 494.39 449.98 492.92 452.61 488.88V488.38C457.02 486.05 458.01 479.38 463.61 479.88C478.55 479.99 494.11 479.74 508.62 478.88C514.95 472.7 519.01 464.26 522.12 454.87C533.01 452.25 541.85 447.6 551.63 443.87C554.13 433.2 558.09 423.99 563.13 415.86C571.41 412.04 576.62 403.95 590.14 406.86C589.16 414.14 589.83 423.15 589.64 430.87C594.03 435.32 601.34 436.84 607.14 439.87C610.08 451.09 612.92 462.43 615.14 474.38C609.99 491.73 602.87 514.58 597.63 532.89C597.52 539.24 601.98 544.6 603.13 550.89C606.59 554.76 610.27 558.43 614.13 561.89L614.14 561.88Z"
                     fill="#F2C94C"
                     style="fill: #f2c94c; fill: color(display-p3 0.949 0.7882 0.298); fill-opacity: 1"
                     data-label="northeast"
                     data-index="1" />
                  <!-- 서북권 -->
                  <path
                     d="M926.21 38.76C924.76 47.78 925.92 56.86 924.21 66.27C922.14 77.6 915.19 88.37 912.71 99.78C910.2 124.21 905.96 125.72 918.21 148.79C930.81 173.1 924.91 179.96 922.71 205.3C921.58 217.65 921.91 230.67 919.71 241.31C918.13 248.95 914.14 255.71 912.71 262.82C910.99 271.38 911.44 281.26 909.71 290.33C902.9 290.35 896.32 290.61 890.2 291.33C875.41 272.22 858.49 251.82 841.69 233.32C836.79 227.92 830.47 217.24 824.19 214.82C797.15 210.89 807.81 211.03 788.18 193.82C788.03 192.8 786.83 192.84 786.68 191.82C782.72 187.44 778.55 183.28 774.18 179.32C771.3 166.38 779.59 159.18 778.18 147.31C778.18 143.14 778.18 138.98 778.18 134.81C776.27 121.31 781.11 109.43 780.68 97.8C780.22 85.42 775.44 74 774.68 61.29C786.44 59.96 782.24 40.11 783.68 25.78C784.52 17.45 789.13 11.87 790.18 6.28C800.18 1.77 812.78 -0.13 828.19 0.78C830.37 0.46 833.84 1.43 835.19 0.28C838.64 0.89 843.14 -0.52 845.69 0.28C854.87 3.17 849.24 21.14 855.69 25.29C860.09 28.12 869.73 26.51 876.2 26.79C883.64 27.12 890.5 27.42 897.2 27.79C906.18 32.15 910.97 40.69 926.21 38.79V38.76ZM905.2 436.35C922.51 423.49 951.05 421.85 974.22 414.84C978.95 465.63 984.49 515.59 989.72 565.87C983.17 580.82 977.38 596.54 970.72 611.38C947.87 601.89 923.58 593.83 899.2 585.87C897.2 578.03 894.98 570.42 892.2 563.36C891.2 561.86 888.1 562.46 885.7 562.36C885.01 561.22 882.22 562.17 880.7 561.86C871.5 562.72 859.2 559.56 850.69 560.86C844.75 563.13 845.65 574.16 837.19 571.86C836.5 570.72 833.71 571.67 832.19 571.36C825.29 570.76 823.12 565.43 818.69 562.36V556.36C820.03 551.75 818.76 544.96 819.19 539.86C817.41 531.04 825.88 527.75 828.69 521.86C831.88 515.17 831.16 508.97 834.19 501.86C847.32 492.16 859.98 481.97 877.2 476.35C883.18 467 887.02 455.5 894.2 447.34C898.08 443.88 901.74 440.21 905.2 436.33V436.35ZM771.17 62.27C772.08 74.72 777.55 86.5 777.67 98.78C777.75 107.58 773.67 116.03 774.67 125.79C773.33 131.79 774.59 139.85 774.17 146.29C775.98 160.67 767.87 166.42 770.67 180.3C780 191.83 791.11 201.89 801.68 212.31C805.85 217.3 816.5 215.83 823.69 217.81C853.31 250.21 882.51 283.01 905.21 322.33C896 338.3 887.35 354.81 878.7 371.34C873.79 373.93 869.7 377.34 864.7 379.84C857.97 379.64 852.58 380.59 846.2 380.34C840.77 380.76 833.64 379.5 828.7 380.84H801.69C798.51 378.85 794.63 377.57 792.19 374.84C787.92 359.27 784.62 342.73 780.19 327.33C762.9 313.47 744.82 300.01 727.68 286.32C707.34 278.29 707.32 283.56 693.67 263.32C694.93 260.42 697.36 258.68 698.17 255.32C699.33 253.31 698.34 249.16 698.67 246.32C698.35 243.81 699.33 240 698.17 238.32C697.71 225.95 699.07 212.34 697.67 200.31C696.82 156.47 695.73 165.02 718.68 128.29C731.17 112.69 728.03 94.68 734.18 75.78C746.42 71.19 758.74 66.67 771.19 62.28L771.17 62.27ZM930.71 745.42C933.03 730.9 937.91 718.94 938.21 702.41C965.23 672.38 965.6 653.05 973.22 614.39C975.41 606.42 980.03 598.71 983.22 590.89C986.6 582.61 988.98 574.14 993.22 567.38C1006.28 565 1019.71 568.1 1031.23 564.88C1041.6 561.98 1050.5 551.29 1065.74 554.38C1069.38 553.57 1067.11 558.68 1067.74 560.88C1065.89 569.48 1055.48 576.1 1054.73 584.89C1054.28 590.19 1058.88 596.73 1060.23 602.39C1062.28 610.94 1059.99 620.93 1065.74 626.4H1072.24C1076.8 627.71 1083.67 626.49 1088.74 626.9C1082.6 640.06 1083.3 655.23 1079.74 669.41C1071.32 692.47 1053.96 712.43 1038.23 731.42C1033.61 737.32 1027.88 747.86 1022.73 750.43C1009.37 756.75 990.15 752.98 975.71 754.93C957.23 755.24 942.4 751.9 930.7 745.43L930.71 745.42ZM1082.24 348.33C1086.9 356.17 1100.56 355.01 1109.25 358.83C1106.96 370.9 1120.55 374.66 1122.25 383.34C1124.02 392.4 1117.59 398.25 1116.75 407.35C1112.43 411.53 1107.22 414.82 1103.74 419.85C1100.23 441.8 1109.77 437.3 1108.25 455.36C1097.64 462.79 1105.13 475.57 1101.74 487.87C1100.01 494.15 1086 502.58 1082.74 508.38C1079.95 525.73 1067.92 522.41 1063.74 534.39C1064.13 541.42 1069.23 541.11 1067.74 550.39C1067.01 550.66 1065.15 549.81 1065.24 550.89C1048.84 547.99 1041.33 559.15 1029.23 561.89C1017.41 564.57 1006.56 561.62 992.72 564.39C988.03 501.39 976.54 445.21 977.22 376.85C989.03 371.62 1000.26 365.36 1012.22 359.35C1018.26 356.32 1022.72 353.41 1031.73 353.85C1033.41 353.53 1036.37 354.5 1037.23 353.35C1041.32 352.93 1047.19 354.19 1050.73 352.85C1054.83 352.43 1060.68 353.69 1064.24 352.35C1072.36 353.14 1076.74 350.19 1082.24 348.35V348.33ZM1045.73 179.79C1045.22 184.33 1042.07 185.4 1041.23 189.79C1039.82 202.14 1042.6 219.63 1051.73 228.8C1057.7 232.47 1067.79 230.2 1075.24 231.8C1083.35 233.54 1090.17 237.37 1097.24 239.3C1099.98 250.53 1097.48 260.07 1100.24 269.81C1102.38 277.36 1110.04 282.39 1107.25 293.82C1098.01 308.56 1102.59 307.12 1085.74 310.32C1076.07 316.76 1074.3 332.95 1083.24 340.83C1082.53 342.12 1081.62 343.22 1081.74 345.33C1075.86 346.78 1071.55 349.81 1063.24 348.83C1061.55 349.15 1058.59 348.19 1057.73 349.33C1053.64 349.75 1047.78 348.49 1044.23 349.83C1040.14 350.25 1034.27 348.99 1030.73 350.33C1018.52 350.53 1008.91 357.71 999.72 362.33C991.2 366.62 983.18 369.85 975.71 374.33C964.14 371.4 952.01 369.03 940.7 365.83C923.58 343.28 905.84 318.67 892.19 294.31C898.83 293.79 906.28 294.07 912.19 292.81C915.35 283.38 913.81 272.44 915.69 263.3C917.1 256.45 921.64 249.36 923.19 241.79C925.43 230.92 925.03 217.27 926.19 204.78C926.99 193.89 929.95 179.86 929.19 169.27C926.46 155.68 915.84 140.86 913.19 127.26C913.54 119.59 915.23 109.3 915.69 101.25C917.83 90.86 924.7 79.9 927.2 68.24C931.43 35.21 921.66 36.27 956.71 23.23C975.63 13.49 969.51 0.89 991.22 3.72C994.29 4.33 997.74 8.55 1001.22 11.22C1012.18 18.96 1021.53 27.23 1031.73 34.73C1040.16 38.35 1047.31 36.41 1057.23 40.23C1064.12 61.9 1044.04 67.54 1040.73 84.24C1040.65 88.65 1046.16 97.73 1048.23 100.74C1051.58 105.6 1060.59 112.04 1062.24 117.74C1064.51 125.63 1061.77 132.82 1063.74 143.75C1060.44 148.5 1048.07 150.55 1045.73 155.75C1043.92 159.77 1046.02 165.16 1045.23 171.75C1045.56 174.26 1044.58 178.08 1045.73 179.76V179.79ZM691.66 266.31C696.43 269.74 698.25 277.84 703.16 281.31C709.59 285.86 718.96 285.42 726.16 289.31C743.36 301.85 761.37 316.9 777.67 329.82C781.39 345.77 785.49 361.34 789.17 377.33C795.36 380.64 799.4 386.1 810.17 384.83C815.44 384.4 822.39 385.67 827.17 384.33C835.67 383.88 845.58 385.22 853.68 383.83C868.11 385.76 872.55 377.69 881.19 373.83C889.54 357.33 898.36 341.32 907.2 325.32C917.68 337.19 926.79 358.19 939.21 368.83C948.88 373.94 962.64 372.33 973.72 377.83C973.4 388.65 973.07 399.85 973.22 411.34C921.7 424.91 897.86 421.79 874.7 473.85C857.04 479.95 844.5 489.62 831.19 500.35C828.12 505.41 828.59 514.24 825.69 520.36C824.56 522.74 817.76 531.31 815.69 531.86C804.09 532.65 790.64 528.75 778.18 529.36C762.26 511.77 755.12 485.4 742.67 464.34C735.61 462.88 729.9 457.88 721.67 455.84C707.26 452.26 690.71 453.94 681.66 446.34C681.95 440.12 682.89 434.57 683.66 428.84C688.98 427.32 693.67 425.18 698.66 423.34C712.26 397.77 708.03 390.19 698.16 366.33C687.12 343.93 684.96 314.63 676.66 293.31C671.82 289.82 665.88 287.42 662.16 282.81C668.71 281.01 675.33 283.76 680.16 281.81C686.32 279.33 686.7 269.86 691.66 266.31ZM836.69 575.38H843.19C848.51 572.2 847.41 562.6 857.69 564.38C867.85 565.61 879.51 564.88 889.7 565.88C892.25 573.16 894.44 580.81 896.7 588.39C921.27 596.99 946.89 604.54 969.72 614.9C965.16 642.21 961.31 664.43 949.21 683.42C945.1 689.87 937.35 694.83 935.21 701.42C933.52 706.62 934.5 712.45 933.71 717.42C932.26 726.51 928.98 734.34 927.21 743.43C877.57 713.17 845.33 699.39 784.68 713.92C780.75 698.34 776.83 682.76 772.68 667.41C779.03 657.09 783.22 644.61 789.18 633.9C800.91 623.49 811.09 612.5 817.68 597.89C818.98 593.34 817.78 586.45 818.18 581.39C819.5 577.67 818.27 571.64 818.68 567.39C823.5 569.4 824.69 575.05 831.68 574.89C832.37 576.03 835.16 575.07 836.68 575.39L836.69 575.38Z"
                     fill="#27AE60"
                     style="fill: #27ae60; fill: color(display-p3 0.1529 0.6824 0.3765); fill-opacity: 1"
                     data-label="northeast"
                     data-index="2" />
               </g>
               <defs>
                  <clipPath id="clip0_2_14">
                     <rect width="100%" height="100%" fill="white" style="fill: white; fill-opacity: 1" />
                  </clipPath>
               </defs>
            </svg>