<svg width="209" height="87" viewBox="0 0 209 87" fill="none" xmlns="http://www.w3.org/2000/svg">
<g clip-path="url(#clip0_30_421)">
<path d="M57.6469 73.2808C53.851 73.2808 50.9023 76.2172 50.9023 79.922C50.9023 83.6269 53.8592 86.5633 57.6469 86.5633C61.4346 86.5633 64.2693 83.6269 64.2693 79.922C64.2693 76.2172 61.3124 73.2808 57.6469 73.2808Z" fill="#FFB400" style="fill:#FFB400;fill:color(display-p3 1.0000 0.7059 0.0000);fill-opacity:1;"/>
<path d="M33.9271 32.2438C31.679 32.1144 27.5003 31.0952 24.8611 28.992L23.3867 36.9032C26.7264 39.2006 31.1006 40.2198 35.4667 40.2198C43.5634 40.2198 48.4508 36.1348 48.7684 30.0112C49.0943 24.5833 46.1944 21.5175 40.2155 17.6913C35.5888 14.6901 33.7235 13.226 33.7887 10.7992C33.8538 8.81734 35.7192 8.12166 38.0325 8.12166C39.963 8.12166 43.2376 8.76071 46.2596 10.3543L48.5078 3.52696C44.3291 1.35904 40.2807 0.655273 37.0062 0.655273C28.9746 0.655273 24.5353 4.67564 24.6004 11.0581C24.6004 14.7629 26.5961 17.9501 31.4101 21.3314C36.2323 24.7127 39.8897 26.5005 39.572 29.3721C39.3114 31.4187 37.837 32.5027 33.919 32.2438H33.9271Z" fill="#00D778" style="fill:#00D778;fill:color(display-p3 0.0000 0.8431 0.4706);fill-opacity:1;"/>
<path d="M19.7287 71.1044L12.2754 47.8721H0V86.0453H8.54474L8.1619 57.385L16.9021 82.7206H22.3678L31.1732 57.385L30.8474 86.0453H39.27V47.8721H27.0597L19.7287 71.1044Z" fill="white" style="fill:white;fill-opacity:1;"/>
<path d="M139.705 40.2197C149.415 40.2197 154.807 34.1609 154.807 25.6672V1.28613H145.749V25.9826C145.749 29.8736 143.753 32.4945 139.705 32.4945C135.657 32.4945 133.726 29.8817 133.726 25.9826V1.28613H124.66V25.6672C124.66 34.4117 130.061 40.2197 139.697 40.2197H139.705Z" fill="white" style="fill:white;fill-opacity:1;"/>
<path d="M180.327 31.54H168.63V1.28613H159.441V39.516H180.327V31.54Z" fill="white" style="fill:white;fill-opacity:1;"/>
<path d="M154.506 58.0241C154.506 60.3215 155.98 62.6835 159.002 62.6835C162.024 62.6835 163.629 60.3215 163.629 58.0241V52.216C163.629 49.9834 162.146 47.686 159.002 47.686C155.858 47.686 154.506 49.9834 154.506 52.216V58.0241Z" fill="#0082FF" style="fill:#0082FF;fill:color(display-p3 0.0000 0.5098 1.0000);fill-opacity:1;"/>
<path d="M175.84 47.686C172.818 47.686 171.344 49.9834 171.344 52.216V58.0241C171.344 60.3215 172.818 62.6835 175.84 62.6835C178.862 62.6835 180.467 60.3215 180.467 58.0241V52.216C180.467 49.9834 178.984 47.686 175.84 47.686Z" fill="#0082FF" style="fill:#0082FF;fill:color(display-p3 0.0000 0.5098 1.0000);fill-opacity:1;"/>
<path d="M96.1417 64.2127C91.515 61.2116 89.6496 59.7475 89.7148 57.3207C89.7799 55.3388 91.6453 54.6431 93.9586 54.6431C95.8891 54.6431 99.1637 55.2822 102.186 56.8758L104.434 50.0484C100.255 47.8805 96.2068 47.1768 92.9323 47.1768C84.9007 47.1768 80.4614 51.1971 80.5347 57.5795C80.5347 61.2844 82.5222 64.4716 87.3444 67.8529C92.1666 71.2342 95.8321 73.0219 95.5063 75.8936C95.2538 77.9402 93.7713 79.0161 89.8532 78.7653C87.6051 78.6359 83.4264 77.6166 80.7872 75.5134L79.3047 83.4247C82.6444 85.7221 87.0186 86.7413 91.3846 86.7413C99.4814 86.7413 104.369 82.6563 104.686 76.5327C105.012 71.1048 102.121 68.047 96.1417 64.2127Z" fill="white" style="fill:white;fill-opacity:1;"/>
<path d="M70.8267 47.8154H44.4756C43.71 47.8154 42.9361 47.9449 42.4881 48.7052C42.0401 49.4737 42.2926 50.2341 42.6836 50.8732L55.7899 70.4006C56.1076 70.9103 56.9466 71.3552 57.6552 71.3552C58.3639 71.3552 59.1948 70.9103 59.5206 70.4006L72.635 50.8732C73.0179 50.2341 73.2785 49.4656 72.8305 48.7052C72.3825 47.9368 71.6087 47.8154 70.8348 47.8154H70.8267Z" fill="#FFB400" style="fill:#FFB400;fill:color(display-p3 1.0000 0.7059 0.0000);fill-opacity:1;"/>
<path d="M181.175 68.3624C178.927 68.2329 176.997 69.3169 176.418 71.8084C175.392 76.1523 171.857 78.4416 167.352 78.4416C162.848 78.4416 159.321 76.1442 158.286 71.8084C157.708 69.3169 155.777 68.1682 153.529 68.3624C151.411 68.4271 149.546 70.1501 149.611 72.4474C149.741 79.5983 156.233 87 167.352 87C178.471 87 184.963 79.5983 185.093 72.4474C185.158 70.1501 183.293 68.4918 181.175 68.3624Z" fill="#0082FF" style="fill:#0082FF;fill:color(display-p3 0.0000 0.5098 1.0000);fill-opacity:1;"/>
<path d="M197.432 78.0612V47.8721H188.244V86.0453H208.999V78.0612H197.432Z" fill="white" style="fill:white;fill-opacity:1;"/>
<path d="M126.933 47.2979C115.553 47.2979 106.748 55.2739 106.748 67.0195C106.748 78.7651 115.553 86.8058 126.933 86.8058C138.312 86.8058 147.24 78.7651 147.24 67.0195C147.24 55.2739 138.5 47.2979 126.933 47.2979ZM126.998 78.6356C119.797 78.6356 115.814 72.8923 115.814 67.0195C115.814 61.1467 119.797 55.4033 126.998 55.4033C134.199 55.4033 138.182 61.1467 138.182 67.0195C138.182 72.8923 134.199 78.6356 126.998 78.6356Z" fill="white" style="fill:white;fill-opacity:1;"/>
<path d="M91.1162 36.2643C93.625 38.1167 97.4779 40.0905 99.9867 40.0905C102.496 40.0905 106.096 38.3027 108.857 36.2643C110.657 34.9862 113.81 32.1145 115.089 30.4562C119.072 25.4813 121.385 19.7945 121.385 13.2827C121.385 6.07513 117.207 0.841381 110.014 0.0729012C105.9 -0.372008 101.982 1.28629 99.9867 3.96384C97.9911 1.28629 94.073 -0.372008 89.9595 0.0729012C82.7588 0.841381 78.5801 6.07513 78.5801 13.2827C78.5801 19.7945 80.8934 25.4732 84.8766 30.4562C86.1636 32.1145 89.316 34.9862 91.108 36.2643H91.1162ZM92.0203 8.04891C94.5292 7.66872 97.1602 8.93873 98.8952 12.0046C99.3432 12.7083 100.63 12.7083 101.078 12.0046C102.813 8.93873 105.452 7.66063 107.953 8.04891C110.78 8.42911 112.515 10.7912 112.645 13.9864C112.775 17.3677 111.423 21.7117 108.14 25.6673C106.275 27.9 104.092 29.6877 102.292 30.7716C101.779 31.0871 100.679 31.6048 99.9786 31.6048C99.2781 31.6048 98.1784 31.0952 97.6652 30.7716C95.8651 29.6877 93.682 27.9 91.8167 25.6673C88.5422 21.7117 87.19 17.3677 87.3122 13.9864C87.4425 10.7993 89.1775 8.4372 92.004 8.04891H92.0203Z" fill="#FF0A73" style="fill:#FF0A73;fill:color(display-p3 1.0000 0.0392 0.4510);fill-opacity:1;"/>
<path d="M52.6289 39.516H75.3796V31.9849H61.6868V23.8147H74.9234V16.3483H61.6868V8.88195H75.3796V1.28613H52.6289V39.516Z" fill="white" style="fill:white;fill-opacity:1;"/>
</g>
<defs>
<clipPath id="clip0_30_421">
<rect width="209" height="87" fill="white" style="fill:white;fill-opacity:1;"/>
</clipPath>
</defs>
</svg>
