<svg width="625" height="102" viewBox="0 0 625 102" fill="none" xmlns="http://www.w3.org/2000/svg">
<g clip-path="url(#clip0_26_169)">
<path d="M195.26 100.33C209.92 100.33 217.42 90.3798 217.42 73.4598V1.56982H201.54V73.2798C201.54 81.3098 200.32 85.4898 195.26 85.4898C190.2 85.4898 188.45 81.1298 188.45 73.2798V1.56982H172.57V73.6298C172.57 90.3798 180.78 100.33 195.26 100.33Z" fill="white" style="fill:white;fill-opacity:1;"/>
<path d="M24.4305 86.2C19.5505 86.2 15.5305 83.06 15.5305 71.72H0.000486364C-0.169514 90.74 8.55049 100.51 24.6105 100.51C40.6705 100.51 48.1705 88.65 48.1705 74.16C48.1705 57.76 39.1005 49.91 28.2805 41.88C21.4705 36.47 16.7705 32.28 16.7705 24.08C16.7705 16.93 20.2505 14.13 23.9205 14.13C27.5905 14.13 31.7705 16.4 31.7705 26.17H46.7805C46.7705 9.07 39.0905 0 24.0805 0C9.07049 0 0.700486 10.12 0.700486 24.25C0.700486 39.6 10.8205 48.51 19.7205 55.48C28.4505 62.46 32.1105 65.78 32.1105 74.15C32.1105 81.31 29.6605 86.19 24.4305 86.19V86.2Z" fill="#00D778" style="fill:#00D778;fill:color(display-p3 0.0000 0.8431 0.4706);fill-opacity:1;"/>
<path d="M574.3 1.74023H558.42V42.0502H574.3V1.74023Z" fill="#0082FF" style="fill:#0082FF;fill:color(display-p3 0.0000 0.5098 1.0000);fill-opacity:1;"/>
<path d="M547.431 1.74023H531.551V42.0502H547.431V1.74023Z" fill="#0082FF" style="fill:#0082FF;fill:color(display-p3 0.0000 0.5098 1.0000);fill-opacity:1;"/>
<path d="M258.429 83.0498H239.929V1.56982H223.529V99.4598H258.429V83.0498Z" fill="white" style="fill:white;fill-opacity:1;"/>
<path d="M312.82 65.7802L299.38 1.74023H283.15V99.6402H297.99V46.7602L309.33 98.4102H315.78L327.47 46.5902V99.6402H342.31V1.74023H326.43L312.82 65.7802Z" fill="white" style="fill:white;fill-opacity:1;"/>
<path d="M375.99 68.0503C367.09 68.0503 359.59 75.5503 359.59 84.4503C359.59 93.3503 367.09 100.68 375.99 100.68C384.89 100.68 392.21 93.5203 392.21 84.4503C392.21 75.3803 384.54 68.0503 375.99 68.0503Z" fill="#FFB400" style="fill:#FFB400;fill:color(display-p3 1.0000 0.7059 0.0000);fill-opacity:1;"/>
<path d="M373.19 62.4702H378.43L406.7 1.74023H344.92L373.19 62.4702Z" fill="#FFB400" style="fill:#FFB400;fill:color(display-p3 1.0000 0.7059 0.0000);fill-opacity:1;"/>
<path d="M568.37 69.4501C568.37 79.9201 561.39 85.3301 553.01 85.3301C544.63 85.3301 537.13 79.9201 537.13 69.4501V57.0601H521.25V69.1001C521.25 88.6401 535.56 100.33 553.01 100.33C570.46 100.33 584.25 88.6401 584.25 69.1001V57.0601H568.37V69.4501Z" fill="#0082FF" style="fill:#0082FF;fill:color(display-p3 0.0000 0.5098 1.0000);fill-opacity:1;"/>
<path d="M606.23 83.2302V1.74023H589.66V99.6402H624.55V83.2302H606.23Z" fill="white" style="fill:white;fill-opacity:1;"/>
<path d="M493.69 0.700195C479.38 0.700195 471.35 9.08019 471.35 27.5702V73.9802C471.35 90.7302 479.37 100.68 494.03 100.68C508.69 100.68 516.19 90.5602 516.19 73.8102V27.5702C516.19 9.07019 508.16 0.700195 493.68 0.700195H493.69ZM500.32 73.4602C500.32 81.3102 499.27 85.8502 494.04 85.8502C489.16 85.8502 487.24 81.4902 487.24 73.6402V27.4002C487.24 19.7202 488.98 15.5302 493.87 15.5302C499.11 15.5302 500.33 19.7202 500.33 27.4002V73.4602H500.32Z" fill="white" style="fill:white;fill-opacity:1;"/>
<path d="M446.57 42.5699C439.59 37.3299 435.05 32.9699 435.05 24.7699C435.05 17.6199 438.54 14.8199 442.2 14.8199C445.86 14.8199 450.05 17.0899 450.05 26.8599H465.06C465.06 9.75994 457.38 0.689941 442.38 0.689941C427.38 0.689941 419 10.8099 419 24.9499C419 40.2999 429.12 49.1999 438.02 56.1799C446.74 63.1599 450.41 66.4699 450.41 74.8499C450.41 82.0099 447.97 86.8899 442.73 86.8899C437.84 86.8899 433.83 83.7499 433.83 72.4099H418.3C418.12 91.4299 426.85 101.2 442.9 101.2C458.95 101.2 466.46 89.3299 466.46 74.8499C466.46 58.4499 457.21 50.7699 446.57 42.5699Z" fill="white" style="fill:white;fill-opacity:1;"/>
<path d="M53.2207 99.4598H87.9507V83.7498H69.4507V56.8798H86.2007V42.5798H69.4507V17.0998H87.9507V1.56982H53.2207V99.4598Z" fill="white" style="fill:white;fill-opacity:1;"/>
<path d="M130.7 97.7301C142.92 84.8201 160.71 60.2101 165.95 41.5401C172.06 21.8201 164.03 4.3801 149.89 1.4101C135.58 -1.5599 128.6 8.2201 128.6 8.2201C128.6 8.2201 121.28 -0.849896 107.14 1.7601C93.1798 5.2501 86.7198 22.0001 92.6598 41.8901C97.7198 59.6901 115.87 84.6401 126.86 97.5501C128.26 99.2901 129.13 99.2901 130.7 97.7201V97.7301ZM112.38 16.0701C118.83 14.5001 125.12 21.1301 127.91 25.8401C128.09 26.8901 129.83 26.8901 130.36 25.8401C132.63 21.1301 137.86 14.8501 145.02 16.4201C153.57 19.2101 153.39 31.9501 148.68 43.4701C145.19 51.1501 137.86 65.6301 128.96 76.8001C120.41 65.6301 111.86 49.7501 108.72 41.9001C104.36 30.9101 103.66 18.8701 112.39 16.0801L112.38 16.0701Z" fill="#FF0A73" style="fill:#FF0A73;fill:color(display-p3 1.0000 0.0392 0.4510);fill-opacity:1;"/>
</g>
<defs>
<clipPath id="clip0_26_169">
<rect width="624.55" height="101.21" fill="white" style="fill:white;fill-opacity:1;"/>
</clipPath>
</defs>
</svg>
